<?xml version="1.0" encoding="UTF-8"?>
<svg width="184px" height="186px" viewBox="0 0 184 186" version="1.1" xmlns="http://www.w3.org/2000/svg" xmlns:xlink="http://www.w3.org/1999/xlink">
    <!-- Generator: Sketch 46.2 (44496) - http://www.bohemiancoding.com/sketch -->
    <title>logos</title>
    <desc>Created with Sketch.</desc>
    <defs>
        <radialGradient cx="49.969398%" cy="49.9951198%" fx="49.969398%" fy="49.9951198%" r="115.408943%" gradientTransform="translate(0.499694,0.499951),scale(1.000000,0.780309),translate(-0.499694,-0.499951)" id="radialGradient-1">
            <stop stop-color="#FFCF4F" offset="0%"></stop>
            <stop stop-color="#F4C236" offset="100%"></stop>
        </radialGradient>
        <radialGradient cx="49.9754259%" cy="49.9956595%" fx="49.9754259%" fy="49.9956595%" r="128.838083%" gradientTransform="translate(0.499754,0.499957),scale(1.000000,0.660373),translate(-0.499754,-0.499957)" id="radialGradient-2">
            <stop stop-color="#08A960" offset="0%"></stop>
            <stop stop-color="#07914B" offset="100%"></stop>
        </radialGradient>
        <radialGradient cx="49.984431%" cy="49.9971903%" fx="49.984431%" fy="49.9971903%" r="130.881758%" gradientTransform="translate(0.499844,0.499972),scale(1.000000,0.645720),translate(-0.499844,-0.499972)" id="radialGradient-3">
            <stop stop-color="#567FC0" offset="0%"></stop>
            <stop stop-color="#557FC0" offset="100%"></stop>
        </radialGradient>
        <radialGradient cx="49.9796554%" cy="49.9945664%" fx="49.9796554%" fy="49.9945664%" r="123.138584%" gradientTransform="translate(0.499797,0.499946),scale(1.000000,0.705651),translate(-0.499797,-0.499946)" id="radialGradient-4">
            <stop stop-color="#E14C40" offset="0%"></stop>
            <stop stop-color="#CD392D" offset="100%"></stop>
        </radialGradient>
        <radialGradient cx="49.969398%" cy="50.0044307%" fx="49.969398%" fy="50.0044307%" r="115.408943%" gradientTransform="translate(0.499694,0.500044),scale(1.000000,0.780309),translate(-0.499694,-0.500044)" id="radialGradient-5">
            <stop stop-color="#CCCCCC" offset="0%"></stop>
            <stop stop-color="#C0C0C0" offset="100%"></stop>
        </radialGradient>
        <radialGradient cx="49.9754259%" cy="50.0020567%" fx="49.9754259%" fy="50.0020567%" r="128.838083%" gradientTransform="translate(0.499754,0.500021),scale(1.000000,0.660373),translate(-0.499754,-0.500021)" id="radialGradient-6">
            <stop stop-color="#A0A0A0" offset="0%"></stop>
            <stop stop-color="#7B7B7B" offset="100%"></stop>
        </radialGradient>
        <radialGradient cx="49.9841303%" cy="50.0014218%" fx="49.9841303%" fy="50.0014218%" r="130.882545%" gradientTransform="translate(0.499841,0.500014),scale(1.000000,0.645716),translate(-0.499841,-0.500014)" id="radialGradient-7">
            <stop stop-color="#848484" offset="0%"></stop>
            <stop stop-color="#838383" offset="100%"></stop>
        </radialGradient>
        <radialGradient cx="49.9796554%" cy="50.0000326%" fx="49.9796554%" fy="50.0000326%" r="123.138584%" gradientTransform="translate(0.499797,0.500000),scale(1.000000,0.705651),translate(-0.499797,-0.500000)" id="radialGradient-8">
            <stop stop-color="#626262" offset="0%"></stop>
            <stop stop-color="#474747" offset="100%"></stop>
        </radialGradient>
        <radialGradient cx="49.9714866%" cy="50.0135187%" fx="49.9714866%" fy="50.0135187%" r="115.408943%" gradientTransform="translate(0.499715,0.500135),scale(1.000000,0.780309),translate(-0.499715,-0.500135)" id="radialGradient-9">
            <stop stop-color="#FFCF4F" offset="0%"></stop>
            <stop stop-color="#F4C236" offset="100%"></stop>
        </radialGradient>
        <radialGradient cx="49.9761343%" cy="50.0083007%" fx="49.9761343%" fy="50.0083007%" r="128.840626%" gradientTransform="translate(0.499761,0.500083),scale(1.000000,0.660360),translate(-0.499761,-0.500083)" id="radialGradient-10">
            <stop stop-color="#08A960" offset="0%"></stop>
            <stop stop-color="#07914B" offset="100%"></stop>
        </radialGradient>
        <radialGradient cx="49.9853055%" cy="50.0056532%" fx="49.9853055%" fy="50.0056532%" r="130.882545%" gradientTransform="translate(0.499853,0.500057),scale(1.000000,0.645716),translate(-0.499853,-0.500057)" id="radialGradient-11">
            <stop stop-color="#567FC0" offset="0%"></stop>
            <stop stop-color="#557FC0" offset="100%"></stop>
        </radialGradient>
        <radialGradient cx="49.9810113%" cy="50.0053679%" fx="49.9810113%" fy="50.0053679%" r="123.138584%" gradientTransform="translate(0.499810,0.500054),scale(1.000000,0.705651),translate(-0.499810,-0.500054)" id="radialGradient-12">
            <stop stop-color="#E14C40" offset="0%"></stop>
            <stop stop-color="#CD392D" offset="100%"></stop>
        </radialGradient>
    </defs>
    <g id="Page-2" stroke="none" stroke-width="1" fill="none" fill-rule="evenodd">
        <g id="logos">
            <g id="Group">
                <g transform="translate(102.000000, 9.000000)" id="Shape" fill-rule="nonzero" fill="#4E4E4E">
                    <path d="M13.912,7.967 C13.912,10.643 13.181,12.705 11.719,14.153 C10.257,15.601 8.201,16.324 5.553,16.324 L0.405,16.324 L0.405,0.29 L5.912,0.29 C8.466,0.29 10.438,0.948 11.828,2.264 C13.217,3.58 13.912,5.481 13.912,7.967 Z M9.45,8.121 C9.45,6.652 9.161,5.562 8.584,4.853 C8.007,4.144 7.131,3.789 5.956,3.789 L4.705,3.789 L4.705,12.771 L5.663,12.771 C6.969,12.771 7.927,12.389 8.537,11.625 C9.147,10.861 9.45,9.693 9.45,8.121 Z"></path>
                    <path d="M21.129,16.544 C19.076,16.544 17.483,15.994 16.346,14.894 C15.21,13.793 14.642,12.227 14.642,10.194 C14.642,8.095 15.168,6.485 16.22,5.362 C17.273,4.24 18.775,3.678 20.726,3.678 C22.583,3.678 24.019,4.166 25.031,5.142 C26.043,6.118 26.551,7.524 26.551,9.359 L26.551,11.267 L18.942,11.267 C18.971,11.962 19.223,12.506 19.7,12.901 C20.175,13.296 20.821,13.493 21.641,13.493 C22.389,13.493 23.077,13.422 23.704,13.279 C24.333,13.136 25.013,12.893 25.745,12.55 L25.745,15.632 C25.077,15.976 24.388,16.213 23.677,16.345 C22.965,16.478 22.117,16.544 21.129,16.544 Z M20.879,6.596 C20.379,6.596 19.959,6.755 19.623,7.073 C19.285,7.391 19.086,7.89 19.029,8.57 L22.685,8.57 C22.671,7.971 22.501,7.492 22.179,7.133 C21.857,6.774 21.424,6.596 20.879,6.596 Z"></path>
                    <path d="M30.851,16.325 L26.149,3.899 L30.589,3.899 L32.679,11.247 C32.687,11.284 32.701,11.346 32.723,11.434 C32.745,11.522 32.766,11.626 32.788,11.747 C32.809,11.868 32.829,11.996 32.848,12.131 C32.866,12.267 32.875,12.393 32.875,12.509 L32.951,12.509 C32.951,12.129 33.016,11.716 33.146,11.27 L35.334,3.9 L39.764,3.9 L35.062,16.326 L30.851,16.326 L30.851,16.325 Z"></path>
                    <polygon points="44.381 16.325 40.147 16.325 40.147 0.29 49.551 0.29 49.551 3.767 44.381 3.767 44.381 6.827 49.148 6.827 49.148 10.304 44.381 10.304"></polygon>
                    <path d="M56.528,16.544 C54.474,16.544 52.881,15.994 51.745,14.894 C50.609,13.794 50.042,12.227 50.042,10.194 C50.042,8.095 50.567,6.485 51.62,5.362 C52.672,4.24 54.174,3.678 56.126,3.678 C57.983,3.678 59.418,4.166 60.431,5.142 C61.443,6.118 61.95,7.524 61.95,9.359 L61.95,11.267 L54.342,11.267 C54.371,11.962 54.623,12.506 55.099,12.901 C55.574,13.296 56.221,13.493 57.041,13.493 C57.788,13.493 58.476,13.422 59.104,13.279 C59.732,13.136 60.412,12.893 61.145,12.55 L61.145,15.632 C60.477,15.976 59.788,16.213 59.077,16.345 C58.364,16.478 57.516,16.544 56.528,16.544 Z M56.278,6.596 C55.777,6.596 55.358,6.755 55.021,7.073 C54.683,7.391 54.485,7.89 54.427,8.57 L58.084,8.57 C58.069,7.971 57.9,7.492 57.578,7.133 C57.256,6.775 56.822,6.596 56.278,6.596 Z"></path>
                    <path d="M72.541,12.508 C72.541,13.839 72.091,14.844 71.191,15.524 C70.291,16.204 69,16.544 67.316,16.544 C66.402,16.544 65.607,16.495 64.932,16.396 C64.257,16.297 63.568,16.116 62.865,15.853 L62.865,12.42 C63.525,12.712 64.249,12.954 65.036,13.144 C65.823,13.334 66.525,13.429 67.142,13.429 C68.063,13.429 68.524,13.217 68.524,12.793 C68.524,12.574 68.395,12.378 68.138,12.207 C67.88,12.035 67.131,11.701 65.89,11.203 C64.758,10.735 63.967,10.203 63.517,9.607 C63.068,9.011 62.842,8.256 62.842,7.342 C62.842,6.187 63.284,5.287 64.17,4.644 C65.055,4 66.307,3.679 67.925,3.679 C68.738,3.679 69.501,3.769 70.216,3.948 C70.931,4.127 71.673,4.388 72.443,4.732 L71.289,7.496 C70.724,7.24 70.125,7.023 69.493,6.844 C68.862,6.665 68.347,6.575 67.947,6.575 C67.251,6.575 66.903,6.747 66.903,7.091 C66.903,7.303 67.024,7.484 67.267,7.634 C67.51,7.784 68.212,8.089 69.373,8.55 C70.236,8.908 70.88,9.259 71.305,9.603 C71.73,9.947 72.041,10.351 72.241,10.815 C72.441,11.278 72.541,11.843 72.541,12.508 Z"></path>
                    <path d="M79.605,13.155 C80.178,13.155 80.864,13.012 81.663,12.727 L81.663,15.853 C81.09,16.102 80.544,16.279 80.024,16.385 C79.505,16.49 78.898,16.544 78.202,16.544 C76.772,16.544 75.742,16.191 75.11,15.486 C74.479,14.78 74.164,13.696 74.164,12.234 L74.164,7.112 L72.673,7.112 L72.673,5.368 L74.567,4.019 L75.667,1.409 L78.453,1.409 L78.453,3.899 L81.478,3.899 L81.478,7.112 L78.453,7.112 L78.453,11.949 C78.452,12.753 78.837,13.155 79.605,13.155 Z"></path>
                </g>
                <g transform="translate(48.000000, 9.000000)" id="Shape" fill-rule="nonzero" fill="#4E4E4E">
                    <path d="M7.571,7.313 L14.493,7.313 L14.493,15.957 C12.614,16.601 10.548,16.922 8.295,16.922 C5.823,16.922 3.913,16.206 2.564,14.772 C1.215,13.339 0.54,11.295 0.54,8.64 C0.54,6.051 1.279,4.037 2.756,2.596 C4.233,1.156 6.303,0.435 8.964,0.435 C9.973,0.435 10.926,0.53 11.822,0.72 C12.718,0.91 13.498,1.152 14.164,1.444 L12.793,4.844 C11.637,4.274 10.369,3.989 8.986,3.989 C7.721,3.989 6.743,4.401 6.052,5.223 C5.361,6.046 5.015,7.222 5.015,8.75 C5.015,10.249 5.328,11.392 5.953,12.178 C6.578,12.964 7.479,13.357 8.657,13.357 C9.301,13.357 9.893,13.295 10.434,13.17 L10.434,10.658 L7.571,10.658 L7.571,7.313 L7.571,7.313 Z"></path>
                    <path d="M30.026,8.344 C30.026,11.02 29.289,13.083 27.816,14.531 C26.343,15.979 24.271,16.703 21.602,16.703 L16.414,16.703 L16.414,0.666 L21.965,0.666 C24.539,0.666 26.526,1.324 27.926,2.641 C29.326,3.958 30.026,5.858 30.026,8.344 Z M25.529,8.498 C25.529,7.028 25.238,5.938 24.657,5.229 C24.075,4.52 23.193,4.165 22.008,4.165 L20.746,4.165 L20.746,13.148 L21.711,13.148 C23.027,13.148 23.993,12.766 24.607,12.002 C25.221,11.238 25.529,10.07 25.529,8.498 Z"></path>
                    <path d="M37.991,7.313 L44.913,7.313 L44.913,15.957 C43.034,16.601 40.968,16.922 38.715,16.922 C36.243,16.922 34.333,16.206 32.984,14.772 C31.635,13.339 30.96,11.295 30.96,8.64 C30.96,6.051 31.699,4.037 33.176,2.596 C34.653,1.156 36.723,0.435 39.384,0.435 C40.393,0.435 41.346,0.53 42.242,0.72 C43.138,0.91 43.918,1.152 44.584,1.444 L43.213,4.844 C42.057,4.274 40.789,3.989 39.406,3.989 C38.141,3.989 37.163,4.401 36.472,5.223 C35.781,6.046 35.435,7.222 35.435,8.75 C35.435,10.249 35.748,11.392 36.373,12.178 C36.998,12.964 37.899,13.357 39.077,13.357 C39.721,13.357 40.313,13.295 40.854,13.17 L40.854,10.658 L37.991,10.658 L37.991,7.313 Z"></path>
                </g>
                <path d="M8.91,60 L15.701,60 C17.308,60 19.305,58.872 20.133,57.489 L25.853,47.97 C26.53,46.574 26.506,44.544 25.734,43.257 L22.356,37.665 L8.91,60 Z" id="Shape" fill="url(#radialGradient-1)" fill-rule="nonzero"></path>
                <path d="M16.209,32.514 L1.108,57.763 C0.524,59.011 1.131,60 2.629,60 L8.91,60 L22.356,37.665 L16.21,27.492 C17.039,28.87 17.039,31.13 16.209,32.514" id="Shape" fill="url(#radialGradient-2)" fill-rule="nonzero"></path>
                <path d="M2.629,0 C1.015,0 0.375,1.133 1.205,2.511 L25.734,43.256 C26.506,44.544 26.529,46.573 25.853,47.969 L31.816,38.044 L8.914,0 L2.629,0 Z" id="Shape" fill="url(#radialGradient-3)" fill-rule="nonzero"></path>
                <path d="M8.914,0 L31.817,38.045 L35.138,32.515 C35.968,31.13 35.968,28.87 35.138,27.492 L20.133,2.511 C19.305,1.133 17.308,0 15.701,0 L8.914,0 Z" id="Shape" fill="url(#radialGradient-4)" fill-rule="nonzero"></path>
                <path d="M59.4127366,45.0915694 L59.4127366,46.9913878 L50,46.9913878 L50,45.005214 L53.8212257,41.1408107 C55.1021702,39.8310809 55.987304,38.8487982 56.4766537,38.1939333 C56.9660033,37.5390684 57.2106744,36.8518303 57.2106744,36.1321985 C57.2106744,35.4845299 56.9588071,34.9304218 56.4550648,34.4698574 C55.9513226,34.0092931 55.3036637,33.7790144 54.5120687,33.7790144 C53.8356148,33.7790144 53.2527218,33.9805083 52.7633722,34.3835021 C52.2740226,34.7864958 51.9573894,35.2758381 51.813463,35.8515435 L50,35.1175228 C50.2878527,34.2107868 50.8419609,33.4443904 51.6623411,32.8183108 C52.4827213,32.1922311 53.4470135,31.879196 54.5552464,31.879196 C55.8937615,31.879196 57.0091741,32.2893799 57.9015175,33.1097602 C58.7938609,33.9301404 59.2400259,34.9376098 59.2400259,36.1321985 C59.2400259,37.5570695 58.455639,39.0970584 56.8868417,40.7522115 L52.5690726,45.0915694 L59.4127366,45.0915694 Z M61.3125551,39.6080027 C61.3125551,37.3627515 61.8666632,35.5133256 62.9748962,34.0596694 C64.0831291,32.6060132 65.5079787,31.879196 67.2494876,31.879196 C68.9909965,31.879196 70.415846,32.6132094 71.524079,34.0812582 C72.6323119,35.5349144 73.1864201,37.3771441 73.1864201,39.6080027 C73.1864201,41.8244686 72.6323119,43.6738945 71.524079,45.156336 C70.415846,46.6099922 68.9909965,47.3368094 67.2494876,47.3368094 C65.5079787,47.3368094 64.0831291,46.6099922 62.9748962,45.156336 C61.8666632,43.6738945 61.3125551,41.8244686 61.3125551,39.6080027 Z M71.1570686,39.6080027 C71.1570686,37.9096717 70.7972581,36.5136069 70.0776263,35.4197666 C69.3723872,34.3259263 68.4296837,33.7790144 67.2494876,33.7790144 C66.0692915,33.7790144 65.126588,34.3259263 64.4213488,35.4197666 C63.701717,36.5136069 63.3419065,37.9096717 63.3419065,39.6080027 C63.3419065,41.3063337 63.701717,42.7095946 64.4213488,43.8178275 C65.126588,44.8972752 66.0692915,45.436991 67.2494876,45.436991 C68.4296837,45.436991 69.3723872,44.890079 70.0776263,43.7962387 C70.7972581,42.6880058 71.1570686,41.291941 71.1570686,39.6080027 Z M80.3970945,32.2246175 L80.3970945,46.9913878 L78.4109207,46.9913878 L78.4109207,34.6857459 L75.5396043,35.9378989 L74.7839947,34.253969 L79.1233526,32.2246175 L80.3970945,32.2246175 Z M92.6379699,34.253969 L85.4704732,47.3368094 L83.7001879,46.4300779 L90.5438519,34.1244359 L83.0741113,34.1244359 L83.117289,32.2246175 L92.6379699,32.2246175 L92.6379699,34.253969 Z M105.1595,46.9913878 L103.086971,46.9913878 L97.6465821,31.5337744 L99.8486443,31.5337744 L104.080058,44.0768937 L104.166413,44.0768937 L108.570538,31.5337744 L110.7726,31.5337744 L105.1595,46.9913878 Z M114.377937,32.7643386 C114.377937,33.1529398 114.241209,33.4839655 113.967749,33.7574255 C113.694289,34.0308856 113.363264,34.1676136 112.974662,34.1676136 C112.586061,34.1676136 112.255036,34.0308856 111.981576,33.7574255 C111.708115,33.4839655 111.571387,33.1529398 111.571387,32.7643386 C111.571387,32.3757375 111.708115,32.0447118 111.981576,31.7712517 C112.255036,31.4977917 112.586061,31.3610637 112.974662,31.3610637 C113.363264,31.3610637 113.694289,31.4977917 113.967749,31.7712517 C114.241209,32.0447118 114.377937,32.3757375 114.377937,32.7643386 Z M113.967749,36.4128535 L113.967749,46.9913878 L111.981576,46.9913878 L111.981576,36.4128535 L113.967749,36.4128535 Z M121.200013,45.5233463 C122.178712,45.5233463 122.977491,45.1707321 123.596374,44.4654929 C124.244043,43.7602538 124.567872,42.8391389 124.567872,41.7021207 C124.567872,40.5938877 124.244043,39.6799691 123.596374,38.9603373 C122.963098,38.2407055 122.164319,37.880895 121.200013,37.880895 C120.250099,37.880895 119.451319,38.2407055 118.803651,38.9603373 C118.155982,39.6799691 117.832153,40.5938877 117.832153,41.7021207 C117.832153,42.8247463 118.155982,43.7386649 118.803651,44.4439041 C119.451319,45.1635358 120.250099,45.5233463 121.200013,45.5233463 Z M121.135246,52 C120.545148,52 119.99104,51.9244398 119.472905,51.7733171 C118.95477,51.6221944 118.483418,51.4099063 118.058836,51.1364462 C117.634253,50.8629861 117.270844,50.5391567 116.968599,50.1649481 C116.666353,49.7907396 116.436075,49.3733594 116.277756,48.9127951 L118.155985,48.1355967 C118.371875,48.75448 118.746078,49.2510185 119.278605,49.625227 C119.811133,49.9994355 120.430007,50.186537 121.135246,50.186537 C122.214694,50.186537 123.05665,49.8627075 123.661141,49.2150389 C124.265632,48.5673703 124.567872,47.6750403 124.567872,46.5380221 L124.567872,45.5233463 L124.481517,45.5233463 C124.107309,46.0846591 123.599976,46.527226 122.959503,46.8510603 C122.319031,47.1748946 121.624597,47.3368094 120.87618,47.3368094 C119.494487,47.3368094 118.307112,46.7970936 117.31402,45.717646 C116.335321,44.609413 115.845979,43.270918 115.845979,41.7021207 C115.845979,40.1333234 116.335321,38.8020246 117.31402,37.7081843 C118.307112,36.614344 119.494487,36.067432 120.87618,36.067432 C121.624597,36.067432 122.319031,36.2293467 122.959503,36.553181 C123.599976,36.8770153 124.107309,37.3195822 124.481517,37.880895 L124.567872,37.880895 L124.567872,36.4128535 L126.467691,36.4128535 L126.467691,46.5380221 C126.467691,48.2363531 125.985545,49.5676519 125.021238,50.5319585 C124.042539,51.5106577 122.747221,52 121.135246,52 Z M128.17321,41.7021207 C128.17321,40.0757529 128.684141,38.7300616 129.706018,37.6650066 C130.742287,36.5999515 132.044801,36.067432 133.613599,36.067432 C135.182396,36.067432 136.477714,36.5999515 137.499591,37.6650066 C138.535861,38.7300616 139.053988,40.0757529 139.053988,41.7021207 C139.053988,43.3428811 138.535861,44.6885724 137.499591,45.7392348 C136.477714,46.8042898 135.182396,47.3368094 133.613599,47.3368094 C132.044801,47.3368094 130.742287,46.8042898 129.706018,45.7392348 C128.684141,44.6741798 128.17321,43.3284885 128.17321,41.7021207 Z M130.159383,41.7021207 C130.159383,42.8391389 130.490409,43.7602538 131.15247,44.4654929 C131.814532,45.1707321 132.634899,45.5233463 133.613599,45.5233463 C134.592298,45.5233463 135.412666,45.1707321 136.074727,44.4654929 C136.736788,43.7602538 137.067814,42.8391389 137.067814,41.7021207 C137.067814,40.5794951 136.736788,39.6655764 136.074727,38.9603373 C135.398273,38.2407055 134.577905,37.880895 133.613599,37.880895 C132.649292,37.880895 131.828924,38.2407055 131.15247,38.9603373 C130.490409,39.6655764 130.159383,40.5794951 130.159383,41.7021207 Z" id="2017-Vigo" fill="#4E4E4E"></path>
            </g>
            <g id="Group" transform="translate(0.000000, 63.000000)">
                <g transform="translate(102.000000, 9.000000)" id="Shape" fill-rule="nonzero" fill="#4E4E4E">
                    <path d="M13.912,7.967 C13.912,10.644 13.181,12.705 11.719,14.154 C10.257,15.601 8.201,16.325 5.553,16.325 L0.405,16.325 L0.405,0.29 L5.912,0.29 C8.466,0.29 10.438,0.947 11.828,2.264 C13.218,3.581 13.912,5.481 13.912,7.967 Z M9.45,8.12 C9.45,6.651 9.161,5.561 8.584,4.852 C8.007,4.142 7.131,3.788 5.956,3.788 L4.705,3.788 L4.705,12.77 L5.663,12.77 C6.969,12.77 7.927,12.388 8.537,11.624 C9.145,10.86 9.45,9.692 9.45,8.12 Z"></path>
                    <path d="M21.129,16.544 C19.076,16.544 17.483,15.994 16.346,14.894 C15.21,13.793 14.642,12.227 14.642,10.194 C14.642,8.095 15.168,6.485 16.22,5.363 C17.273,4.241 18.775,3.679 20.726,3.679 C22.583,3.679 24.019,4.167 25.031,5.143 C26.043,6.12 26.551,7.525 26.551,9.361 L26.551,11.269 L18.942,11.269 C18.971,11.963 19.223,12.508 19.7,12.903 C20.175,13.299 20.821,13.496 21.641,13.496 C22.389,13.496 23.077,13.425 23.704,13.282 C24.333,13.139 25.013,12.896 25.745,12.553 L25.745,15.635 C25.077,15.979 24.388,16.216 23.677,16.348 C22.965,16.478 22.117,16.544 21.129,16.544 Z M20.879,6.596 C20.379,6.596 19.959,6.755 19.623,7.074 C19.285,7.392 19.086,7.891 19.029,8.571 L22.685,8.571 C22.671,7.971 22.501,7.493 22.179,7.134 C21.857,6.775 21.424,6.596 20.879,6.596 Z"></path>
                    <path d="M30.851,16.324 L26.149,3.898 L30.589,3.898 L32.679,11.246 C32.687,11.283 32.701,11.345 32.723,11.433 C32.745,11.521 32.766,11.625 32.788,11.746 C32.809,11.867 32.829,11.995 32.848,12.13 C32.866,12.266 32.875,12.392 32.875,12.509 L32.951,12.509 C32.951,12.129 33.016,11.716 33.146,11.27 L35.334,3.9 L39.764,3.9 L35.062,16.326 L30.851,16.326 L30.851,16.324 Z"></path>
                    <polygon points="44.381 16.324 40.147 16.324 40.147 0.29 49.551 0.29 49.551 3.767 44.381 3.767 44.381 6.827 49.148 6.827 49.148 10.304 44.381 10.304"></polygon>
                    <path d="M56.528,16.544 C54.474,16.544 52.881,15.994 51.745,14.894 C50.609,13.794 50.042,12.227 50.042,10.194 C50.042,8.095 50.567,6.485 51.62,5.363 C52.672,4.241 54.174,3.679 56.126,3.679 C57.983,3.679 59.418,4.167 60.431,5.143 C61.443,6.12 61.95,7.525 61.95,9.361 L61.95,11.269 L54.342,11.269 C54.371,11.963 54.623,12.508 55.099,12.903 C55.574,13.299 56.221,13.496 57.041,13.496 C57.788,13.496 58.476,13.425 59.104,13.282 C59.732,13.139 60.412,12.896 61.145,12.553 L61.145,15.635 C60.477,15.979 59.788,16.216 59.077,16.348 C58.364,16.478 57.516,16.544 56.528,16.544 Z M56.278,6.596 C55.777,6.596 55.358,6.755 55.021,7.074 C54.683,7.392 54.485,7.891 54.427,8.571 L58.084,8.571 C58.069,7.971 57.9,7.493 57.578,7.134 C57.256,6.775 56.822,6.596 56.278,6.596 Z"></path>
                    <path d="M72.541,12.508 C72.541,13.839 72.091,14.844 71.191,15.524 C70.291,16.205 69,16.545 67.316,16.545 C66.402,16.545 65.607,16.495 64.932,16.397 C64.257,16.299 63.568,16.118 62.865,15.854 L62.865,12.42 C63.525,12.713 64.249,12.954 65.036,13.144 C65.823,13.334 66.525,13.429 67.142,13.429 C68.063,13.429 68.524,13.217 68.524,12.793 C68.524,12.573 68.395,12.378 68.138,12.206 C67.88,12.034 67.131,11.7 65.89,11.202 C64.758,10.734 63.967,10.203 63.517,9.606 C63.068,9.01 62.842,8.255 62.842,7.341 C62.842,6.186 63.284,5.286 64.17,4.643 C65.055,3.999 66.307,3.678 67.925,3.678 C68.738,3.678 69.501,3.768 70.216,3.947 C70.931,4.127 71.673,4.387 72.443,4.731 L71.289,7.495 C70.724,7.239 70.125,7.022 69.493,6.843 C68.862,6.664 68.347,6.574 67.947,6.574 C67.251,6.574 66.903,6.746 66.903,7.09 C66.903,7.302 67.024,7.483 67.267,7.633 C67.51,7.782 68.212,8.088 69.373,8.548 C70.236,8.906 70.88,9.258 71.305,9.602 C71.73,9.946 72.041,10.349 72.241,10.814 C72.441,11.277 72.541,11.843 72.541,12.508 Z"></path>
                    <path d="M79.605,13.154 C80.178,13.154 80.864,13.011 81.663,12.726 L81.663,15.852 C81.09,16.101 80.544,16.279 80.024,16.384 C79.505,16.489 78.898,16.543 78.202,16.543 C76.772,16.543 75.742,16.19 75.11,15.484 C74.479,14.779 74.164,13.695 74.164,12.232 L74.164,7.11 L72.673,7.11 L72.673,5.367 L74.567,4.017 L75.667,1.407 L78.453,1.407 L78.453,3.897 L81.478,3.897 L81.478,7.11 L78.453,7.11 L78.453,11.947 C78.452,12.753 78.837,13.154 79.605,13.154 Z"></path>
                </g>
                <g transform="translate(48.000000, 9.000000)" id="Shape" fill-rule="nonzero" fill="#4E4E4E">
                    <path d="M7.571,7.313 L14.493,7.313 L14.493,15.957 C12.614,16.601 10.548,16.923 8.295,16.923 C5.823,16.923 3.913,16.206 2.564,14.773 C1.215,13.34 0.54,11.296 0.54,8.641 C0.54,6.052 1.279,4.038 2.756,2.597 C4.233,1.157 6.303,0.436 8.964,0.436 C9.973,0.436 10.926,0.532 11.822,0.721 C12.718,0.911 13.498,1.153 14.164,1.446 L12.793,4.846 C11.637,4.276 10.369,3.991 8.986,3.991 C7.721,3.991 6.743,4.402 6.052,5.224 C5.361,6.047 5.015,7.223 5.015,8.751 C5.015,10.25 5.328,11.393 5.953,12.179 C6.578,12.965 7.479,13.358 8.657,13.358 C9.301,13.358 9.893,13.296 10.434,13.171 L10.434,10.659 L7.571,10.659 L7.571,7.313 L7.571,7.313 Z"></path>
                    <path d="M30.026,8.344 C30.026,11.021 29.289,13.083 27.816,14.531 C26.342,15.979 24.271,16.703 21.602,16.703 L16.414,16.703 L16.414,0.665 L21.965,0.665 C24.539,0.665 26.526,1.323 27.926,2.64 C29.326,3.957 30.026,5.857 30.026,8.344 Z M25.529,8.497 C25.529,7.027 25.238,5.937 24.657,5.228 C24.076,4.519 23.193,4.165 22.008,4.165 L20.746,4.165 L20.746,13.148 L21.711,13.148 C23.027,13.148 23.993,12.766 24.607,12.002 C25.222,11.238 25.529,10.069 25.529,8.497 Z"></path>
                    <path d="M37.991,7.313 L44.913,7.313 L44.913,15.957 C43.034,16.601 40.968,16.923 38.715,16.923 C36.243,16.923 34.333,16.206 32.984,14.773 C31.635,13.34 30.96,11.296 30.96,8.641 C30.96,6.052 31.699,4.038 33.176,2.597 C34.653,1.157 36.723,0.436 39.384,0.436 C40.393,0.436 41.346,0.532 42.242,0.721 C43.138,0.911 43.918,1.153 44.584,1.446 L43.213,4.846 C42.057,4.276 40.789,3.991 39.406,3.991 C38.141,3.991 37.163,4.402 36.472,5.224 C35.781,6.047 35.435,7.223 35.435,8.751 C35.435,10.25 35.748,11.393 36.373,12.179 C36.998,12.965 37.899,13.358 39.077,13.358 C39.721,13.358 40.313,13.296 40.854,13.171 L40.854,10.659 L37.991,10.659 L37.991,7.313 Z"></path>
                </g>
                <path d="M8.91,60 L15.701,60 C17.308,60 19.305,58.872 20.133,57.489 L25.853,47.97 C26.53,46.574 26.506,44.544 25.734,43.257 L22.356,37.665 L8.91,60 Z" id="Shape" fill="url(#radialGradient-5)" fill-rule="nonzero"></path>
                <path d="M16.209,32.514 L1.108,57.763 C0.524,59.011 1.131,60 2.629,60 L8.91,60 L22.356,37.665 L16.21,27.492 C17.039,28.87 17.039,31.13 16.209,32.514" id="Shape" fill="url(#radialGradient-6)" fill-rule="nonzero"></path>
                <path d="M2.629,0 C1.016,0 0.375,1.133 1.205,2.511 L25.734,43.256 C26.506,44.544 26.529,46.573 25.853,47.969 L31.816,38.044 L8.914,0 L2.629,0 Z" id="Shape" fill="url(#radialGradient-7)" fill-rule="nonzero"></path>
                <path d="M8.914,0 L31.817,38.045 L35.138,32.515 C35.968,31.13 35.968,28.87 35.138,27.492 L20.134,2.512 C19.305,1.133 17.308,0 15.701,0 L8.914,0 Z" id="Shape" fill="url(#radialGradient-8)" fill-rule="nonzero"></path>
                <path d="M59.4127366,44.7305058 L59.4127366,46.6303242 L50,46.6303242 L50,44.6441504 L53.8212257,40.779747 C55.1021702,39.4700172 55.987304,38.4877345 56.4766537,37.8328696 C56.9660033,37.1780047 57.2106744,36.4907666 57.2106744,35.7711349 C57.2106744,35.1234663 56.9588071,34.5693581 56.4550648,34.1087938 C55.9513226,33.6482294 55.3036637,33.4179507 54.5120687,33.4179507 C53.8356148,33.4179507 53.2527218,33.6194446 52.7633722,34.0224384 C52.2740226,34.4254322 51.9573894,34.9147744 51.813463,35.4904799 L50,34.7564591 C50.2878527,33.8497231 50.8419609,33.0833267 51.6623411,32.4572471 C52.4827213,31.8311674 53.4470135,31.5181323 54.5552464,31.5181323 C55.8937615,31.5181323 57.0091741,31.9283163 57.9015175,32.7486965 C58.7938609,33.5690767 59.2400259,34.5765461 59.2400259,35.7711349 C59.2400259,37.1960058 58.455639,38.7359947 56.8868417,40.3911478 L52.5690726,44.7305058 L59.4127366,44.7305058 Z M61.3125551,39.246939 C61.3125551,37.0016878 61.8666632,35.1522619 62.9748962,33.6986057 C64.0831291,32.2449495 65.5079787,31.5181323 67.2494876,31.5181323 C68.9909965,31.5181323 70.415846,32.2521457 71.524079,33.7201945 C72.6323119,35.1738507 73.1864201,37.0160805 73.1864201,39.246939 C73.1864201,41.4634049 72.6323119,43.3128308 71.524079,44.7952723 C70.415846,46.2489285 68.9909965,46.9757457 67.2494876,46.9757457 C65.5079787,46.9757457 64.0831291,46.2489285 62.9748962,44.7952723 C61.8666632,43.3128308 61.3125551,41.4634049 61.3125551,39.246939 Z M71.1570686,39.246939 C71.1570686,37.548608 70.7972581,36.1525433 70.0776263,35.058703 C69.3723872,33.9648626 68.4296837,33.4179507 67.2494876,33.4179507 C66.0692915,33.4179507 65.126588,33.9648626 64.4213488,35.058703 C63.701717,36.1525433 63.3419065,37.548608 63.3419065,39.246939 C63.3419065,40.94527 63.701717,42.3485309 64.4213488,43.4567639 C65.126588,44.5362115 66.0692915,45.0759273 67.2494876,45.0759273 C68.4296837,45.0759273 69.3723872,44.5290153 70.0776263,43.435175 C70.7972581,42.3269421 71.1570686,40.9308774 71.1570686,39.246939 Z M80.3970945,31.8635538 L80.3970945,46.6303242 L78.4109207,46.6303242 L78.4109207,34.3246822 L75.5396043,35.5768353 L74.7839947,33.8929053 L79.1233526,31.8635538 L80.3970945,31.8635538 Z M92.6379699,33.8929053 L85.4704732,46.9757457 L83.7001879,46.0690142 L90.5438519,33.7633722 L83.0741113,33.7633722 L83.117289,31.8635538 L92.6379699,31.8635538 L92.6379699,33.8929053 Z M105.1595,46.6303242 L103.086971,46.6303242 L97.6465821,31.1727108 L99.8486443,31.1727108 L104.080058,43.71583 L104.166413,43.71583 L108.570538,31.1727108 L110.7726,31.1727108 L105.1595,46.6303242 Z M114.377937,32.403275 C114.377937,32.7918761 114.241209,33.1229018 113.967749,33.3963619 C113.694289,33.6698219 113.363264,33.8065499 112.974662,33.8065499 C112.586061,33.8065499 112.255036,33.6698219 111.981576,33.3963619 C111.708115,33.1229018 111.571387,32.7918761 111.571387,32.403275 C111.571387,32.0146738 111.708115,31.6836481 111.981576,31.4101881 C112.255036,31.136728 112.586061,31 112.974662,31 C113.363264,31 113.694289,31.136728 113.967749,31.4101881 C114.241209,31.6836481 114.377937,32.0146738 114.377937,32.403275 Z M113.967749,36.0517899 L113.967749,46.6303242 L111.981576,46.6303242 L111.981576,36.0517899 L113.967749,36.0517899 Z M121.200013,45.1622827 C122.178712,45.1622827 122.977491,44.8096684 123.596374,44.1044292 C124.244043,43.3991901 124.567872,42.4780752 124.567872,41.341057 C124.567872,40.2328241 124.244043,39.3189054 123.596374,38.5992736 C122.963098,37.8796418 122.164319,37.5198313 121.200013,37.5198313 C120.250099,37.5198313 119.451319,37.8796418 118.803651,38.5992736 C118.155982,39.3189054 117.832153,40.2328241 117.832153,41.341057 C117.832153,42.4636826 118.155982,43.3776012 118.803651,44.0828404 C119.451319,44.8024722 120.250099,45.1622827 121.200013,45.1622827 Z M121.135246,51.6389363 C120.545148,51.6389363 119.99104,51.5633761 119.472905,51.4122534 C118.95477,51.2611308 118.483418,51.0488426 118.058836,50.7753825 C117.634253,50.5019224 117.270844,50.178093 116.968599,49.8038845 C116.666353,49.4296759 116.436075,49.0122958 116.277756,48.5517314 L118.155985,47.774533 C118.371875,48.3934163 118.746078,48.8899548 119.278605,49.2641633 C119.811133,49.6383718 120.430007,49.8254733 121.135246,49.8254733 C122.214694,49.8254733 123.05665,49.5016439 123.661141,48.8539752 C124.265632,48.2063066 124.567872,47.3139766 124.567872,46.1769584 L124.567872,45.1622827 L124.481517,45.1622827 C124.107309,45.7235955 123.599976,46.1661624 122.959503,46.4899967 C122.319031,46.813831 121.624597,46.9757457 120.87618,46.9757457 C119.494487,46.9757457 118.307112,46.4360299 117.31402,45.3565823 C116.335321,44.2483493 115.845979,42.9098543 115.845979,41.341057 C115.845979,39.7722597 116.335321,38.4409609 117.31402,37.3471206 C118.307112,36.2532803 119.494487,35.7063683 120.87618,35.7063683 C121.624597,35.7063683 122.319031,35.868283 122.959503,36.1921173 C123.599976,36.5159517 124.107309,36.9585186 124.481517,37.5198313 L124.567872,37.5198313 L124.567872,36.0517899 L126.467691,36.0517899 L126.467691,46.1769584 C126.467691,47.8752894 125.985545,49.2065882 125.021238,50.1708948 C124.042539,51.1495941 122.747221,51.6389363 121.135246,51.6389363 Z M128.17321,41.341057 C128.17321,39.7146892 128.684141,38.3689979 129.706018,37.3039429 C130.742287,36.2388879 132.044801,35.7063683 133.613599,35.7063683 C135.182396,35.7063683 136.477714,36.2388879 137.499591,37.3039429 C138.535861,38.3689979 139.053988,39.7146892 139.053988,41.341057 C139.053988,42.9818175 138.535861,44.3275087 137.499591,45.3781711 C136.477714,46.4432262 135.182396,46.9757457 133.613599,46.9757457 C132.044801,46.9757457 130.742287,46.4432262 129.706018,45.3781711 C128.684141,44.3131161 128.17321,42.9674248 128.17321,41.341057 Z M130.159383,41.341057 C130.159383,42.4780752 130.490409,43.3991901 131.15247,44.1044292 C131.814532,44.8096684 132.634899,45.1622827 133.613599,45.1622827 C134.592298,45.1622827 135.412666,44.8096684 136.074727,44.1044292 C136.736788,43.3991901 137.067814,42.4780752 137.067814,41.341057 C137.067814,40.2184314 136.736788,39.3045128 136.074727,38.5992736 C135.398273,37.8796418 134.577905,37.5198313 133.613599,37.5198313 C132.649292,37.5198313 131.828924,37.8796418 131.15247,38.5992736 C130.490409,39.3045128 130.159383,40.2184314 130.159383,41.341057 Z" id="2017-Vigo" fill="#4E4E4E"></path>
            </g>
            <g id="Group" transform="translate(1.000000, 126.000000)">
                <g transform="translate(101.000000, 9.000000)" id="Shape" fill-rule="nonzero" fill="#E6E6E5">
                    <path d="M14.071,7.967 C14.071,10.643 13.34,12.705 11.878,14.153 C10.416,15.601 8.36,16.325 5.712,16.325 L0.564,16.325 L0.564,0.29 L6.071,0.29 C8.625,0.29 10.597,0.948 11.987,2.265 C13.377,3.582 14.071,5.48 14.071,7.967 Z M9.608,8.12 C9.608,6.65 9.319,5.561 8.742,4.851 C8.165,4.142 7.289,3.788 6.114,3.788 L4.863,3.788 L4.863,12.77 L5.821,12.77 C7.127,12.77 8.085,12.388 8.695,11.624 C9.303,10.86 9.608,9.692 9.608,8.12 Z"></path>
                    <path d="M21.287,16.544 C19.234,16.544 17.641,15.993 16.505,14.893 C15.369,13.793 14.801,12.226 14.801,10.194 C14.801,8.095 15.327,6.485 16.379,5.363 C17.431,4.24 18.933,3.679 20.884,3.679 C22.741,3.679 24.177,4.166 25.189,5.143 C26.201,6.12 26.709,7.525 26.709,9.36 L26.709,11.269 L19.1,11.269 C19.129,11.963 19.381,12.508 19.858,12.903 C20.333,13.298 20.979,13.495 21.799,13.495 C22.547,13.495 23.235,13.424 23.862,13.281 C24.491,13.138 25.171,12.896 25.903,12.552 L25.903,15.633 C25.235,15.977 24.546,16.215 23.835,16.346 C23.123,16.478 22.275,16.544 21.287,16.544 Z M21.037,6.596 C20.537,6.596 20.117,6.755 19.781,7.074 C19.443,7.391 19.244,7.89 19.187,8.571 L22.843,8.571 C22.829,7.971 22.659,7.492 22.337,7.133 C22.016,6.775 21.582,6.596 21.037,6.596 Z"></path>
                    <path d="M31.009,16.324 L26.307,3.897 L30.747,3.897 L32.837,11.246 C32.845,11.283 32.859,11.345 32.881,11.433 C32.903,11.521 32.924,11.625 32.946,11.746 C32.967,11.867 32.987,11.995 33.006,12.13 C33.024,12.266 33.033,12.392 33.033,12.509 L33.109,12.509 C33.109,12.128 33.174,11.715 33.304,11.27 L35.492,3.899 L39.922,3.899 L35.22,16.326 L31.009,16.326 L31.009,16.324 Z"></path>
                    <polygon points="44.539 16.324 40.305 16.324 40.305 0.289 49.709 0.289 49.709 3.767 44.539 3.767 44.539 6.827 49.306 6.827 49.306 10.304 44.539 10.304"></polygon>
                    <path d="M56.687,16.544 C54.633,16.544 53.04,15.993 51.904,14.893 C50.768,13.793 50.201,12.226 50.201,10.194 C50.201,8.095 50.726,6.485 51.779,5.363 C52.831,4.24 54.333,3.679 56.285,3.679 C58.142,3.679 59.577,4.166 60.59,5.143 C61.602,6.12 62.109,7.525 62.109,9.36 L62.109,11.269 L54.501,11.269 C54.53,11.963 54.782,12.508 55.258,12.903 C55.733,13.298 56.38,13.495 57.2,13.495 C57.947,13.495 58.635,13.424 59.263,13.281 C59.891,13.138 60.571,12.896 61.304,12.552 L61.304,15.633 C60.636,15.977 59.947,16.215 59.236,16.346 C58.522,16.478 57.674,16.544 56.687,16.544 Z M56.437,6.596 C55.936,6.596 55.517,6.755 55.18,7.074 C54.842,7.391 54.644,7.89 54.586,8.571 L58.243,8.571 C58.228,7.971 58.059,7.492 57.737,7.133 C57.414,6.775 56.98,6.596 56.437,6.596 Z"></path>
                    <path d="M72.699,12.508 C72.699,13.838 72.249,14.844 71.349,15.524 C70.449,16.204 69.158,16.545 67.474,16.545 C66.56,16.545 65.765,16.495 65.09,16.397 C64.415,16.299 63.726,16.118 63.023,15.854 L63.023,12.421 C63.683,12.713 64.407,12.954 65.194,13.145 C65.981,13.336 66.683,13.43 67.3,13.43 C68.221,13.43 68.682,13.218 68.682,12.794 C68.682,12.574 68.553,12.379 68.296,12.207 C68.038,12.035 67.289,11.7 66.048,11.203 C64.916,10.735 64.125,10.203 63.675,9.607 C63.226,9.011 63,8.256 63,7.342 C63,6.187 63.442,5.287 64.328,4.644 C65.213,4 66.465,3.679 68.083,3.679 C68.896,3.679 69.659,3.768 70.374,3.948 C71.089,4.127 71.831,4.388 72.601,4.732 L71.447,7.496 C70.882,7.24 70.283,7.022 69.651,6.844 C69.02,6.664 68.505,6.575 68.105,6.575 C67.409,6.575 67.061,6.747 67.061,7.091 C67.061,7.303 67.182,7.484 67.425,7.633 C67.668,7.783 68.37,8.089 69.531,8.549 C70.394,8.907 71.038,9.259 71.463,9.602 C71.888,9.946 72.199,10.35 72.399,10.814 C72.6,11.277 72.699,11.842 72.699,12.508 Z"></path>
                    <path d="M79.764,13.154 C80.337,13.154 81.023,13.011 81.822,12.726 L81.822,15.852 C81.249,16.101 80.703,16.278 80.183,16.384 C79.664,16.489 79.057,16.543 78.361,16.543 C76.931,16.543 75.901,16.189 75.269,15.484 C74.638,14.778 74.323,13.694 74.323,12.232 L74.323,7.11 L72.832,7.11 L72.832,5.366 L74.726,4.017 L75.826,1.407 L78.612,1.407 L78.612,3.896 L81.637,3.896 L81.637,7.11 L78.612,7.11 L78.612,11.947 C78.61,12.753 78.995,13.154 79.764,13.154 Z"></path>
                </g>
                <g transform="translate(47.000000, 9.000000)" id="Shape" fill-rule="nonzero" fill="#E6E6E5">
                    <path d="M7.729,7.313 L14.651,7.313 L14.651,15.957 C12.772,16.601 10.706,16.923 8.453,16.923 C5.981,16.923 4.071,16.206 2.722,14.773 C1.373,13.34 0.698,11.295 0.698,8.641 C0.698,6.052 1.437,4.037 2.914,2.597 C4.391,1.157 6.461,0.436 9.122,0.436 C10.131,0.436 11.084,0.532 11.98,0.721 C12.876,0.911 13.656,1.153 14.322,1.446 L12.951,4.846 C11.795,4.276 10.527,3.991 9.144,3.991 C7.879,3.991 6.901,4.402 6.21,5.224 C5.519,6.047 5.173,7.222 5.173,8.75 C5.173,10.25 5.486,11.393 6.111,12.179 C6.736,12.965 7.637,13.358 8.815,13.358 C9.459,13.358 10.051,13.296 10.592,13.171 L10.592,10.659 L7.729,10.659 L7.729,7.313 L7.729,7.313 Z"></path>
                    <path d="M30.185,8.345 C30.185,11.022 29.448,13.083 27.975,14.532 C26.502,15.981 24.43,16.704 21.761,16.704 L16.573,16.704 L16.573,0.667 L22.124,0.667 C24.698,0.667 26.685,1.325 28.085,2.642 C29.485,3.959 30.185,5.858 30.185,8.345 Z M25.688,8.498 C25.688,7.028 25.397,5.938 24.816,5.229 C24.235,4.52 23.352,4.165 22.167,4.165 L20.905,4.165 L20.905,13.149 L21.87,13.149 C23.186,13.149 24.152,12.766 24.766,12.003 C25.38,11.238 25.688,10.07 25.688,8.498 Z"></path>
                    <path d="M38.15,7.313 L45.072,7.313 L45.072,15.957 C43.193,16.601 41.127,16.923 38.874,16.923 C36.402,16.923 34.492,16.206 33.143,14.773 C31.794,13.34 31.119,11.295 31.119,8.641 C31.119,6.052 31.858,4.037 33.335,2.597 C34.812,1.157 36.882,0.436 39.543,0.436 C40.552,0.436 41.505,0.532 42.401,0.721 C43.297,0.911 44.077,1.153 44.743,1.446 L43.372,4.846 C42.216,4.276 40.948,3.991 39.565,3.991 C38.3,3.991 37.322,4.402 36.631,5.224 C35.94,6.047 35.594,7.222 35.594,8.75 C35.594,10.25 35.907,11.393 36.532,12.179 C37.157,12.965 38.058,13.358 39.236,13.358 C39.88,13.358 40.472,13.296 41.013,13.171 L41.013,10.659 L38.15,10.659 L38.15,7.313 Z"></path>
                </g>
                <path d="M8.068,60 L14.859,60 C16.466,60 18.463,58.872 19.291,57.489 L25.011,47.97 C25.688,46.574 25.664,44.544 24.892,43.257 L21.514,37.665 L8.068,60 Z" id="Shape" fill="url(#radialGradient-9)" fill-rule="nonzero"></path>
                <path d="M15.368,32.514 L0.266,57.763 C-0.317,59.011 0.289,60 1.787,60 L8.068,60 L21.514,37.665 L15.368,27.492 C16.197,28.87 16.197,31.13 15.368,32.514" id="Shape" fill="url(#radialGradient-10)" fill-rule="nonzero"></path>
                <path d="M1.787,0 C0.174,0 -0.467,1.133 0.363,2.511 L24.892,43.256 C25.664,44.544 25.687,46.573 25.011,47.969 L30.974,38.044 L8.072,0 L1.787,0 Z" id="Shape" fill="url(#radialGradient-11)" fill-rule="nonzero"></path>
                <path d="M8.072,0 L30.975,38.045 L34.296,32.515 C35.126,31.13 35.126,28.87 34.296,27.492 L19.292,2.511 C18.463,1.133 16.467,0 14.86,0 L8.072,0 Z" id="Shape" fill="url(#radialGradient-12)" fill-rule="nonzero"></path>
                <path d="M58.4127366,44.7305058 L58.4127366,46.6303242 L49,46.6303242 L49,44.6441504 L52.8212257,40.779747 C54.1021702,39.4700172 54.987304,38.4877345 55.4766537,37.8328696 C55.9660033,37.1780047 56.2106744,36.4907666 56.2106744,35.7711349 C56.2106744,35.1234663 55.9588071,34.5693581 55.4550648,34.1087938 C54.9513226,33.6482294 54.3036637,33.4179507 53.5120687,33.4179507 C52.8356148,33.4179507 52.2527218,33.6194446 51.7633722,34.0224384 C51.2740226,34.4254322 50.9573894,34.9147744 50.813463,35.4904799 L49,34.7564591 C49.2878527,33.8497231 49.8419609,33.0833267 50.6623411,32.4572471 C51.4827213,31.8311674 52.4470135,31.5181323 53.5552464,31.5181323 C54.8937615,31.5181323 56.0091741,31.9283163 56.9015175,32.7486965 C57.7938609,33.5690767 58.2400259,34.5765461 58.2400259,35.7711349 C58.2400259,37.1960058 57.455639,38.7359947 55.8868417,40.3911478 L51.5690726,44.7305058 L58.4127366,44.7305058 Z M60.3125551,39.246939 C60.3125551,37.0016878 60.8666632,35.1522619 61.9748962,33.6986057 C63.0831291,32.2449495 64.5079787,31.5181323 66.2494876,31.5181323 C67.9909965,31.5181323 69.415846,32.2521457 70.524079,33.7201945 C71.6323119,35.1738507 72.1864201,37.0160805 72.1864201,39.246939 C72.1864201,41.4634049 71.6323119,43.3128308 70.524079,44.7952723 C69.415846,46.2489285 67.9909965,46.9757457 66.2494876,46.9757457 C64.5079787,46.9757457 63.0831291,46.2489285 61.9748962,44.7952723 C60.8666632,43.3128308 60.3125551,41.4634049 60.3125551,39.246939 Z M70.1570686,39.246939 C70.1570686,37.548608 69.7972581,36.1525433 69.0776263,35.058703 C68.3723872,33.9648626 67.4296837,33.4179507 66.2494876,33.4179507 C65.0692915,33.4179507 64.126588,33.9648626 63.4213488,35.058703 C62.701717,36.1525433 62.3419065,37.548608 62.3419065,39.246939 C62.3419065,40.94527 62.701717,42.3485309 63.4213488,43.4567639 C64.126588,44.5362115 65.0692915,45.0759273 66.2494876,45.0759273 C67.4296837,45.0759273 68.3723872,44.5290153 69.0776263,43.435175 C69.7972581,42.3269421 70.1570686,40.9308774 70.1570686,39.246939 Z M79.3970945,31.8635538 L79.3970945,46.6303242 L77.4109207,46.6303242 L77.4109207,34.3246822 L74.5396043,35.5768353 L73.7839947,33.8929053 L78.1233526,31.8635538 L79.3970945,31.8635538 Z M91.6379699,33.8929053 L84.4704732,46.9757457 L82.7001879,46.0690142 L89.5438519,33.7633722 L82.0741113,33.7633722 L82.117289,31.8635538 L91.6379699,31.8635538 L91.6379699,33.8929053 Z M104.1595,46.6303242 L102.086971,46.6303242 L96.6465821,31.1727108 L98.8486443,31.1727108 L103.080058,43.71583 L103.166413,43.71583 L107.570538,31.1727108 L109.7726,31.1727108 L104.1595,46.6303242 Z M113.377937,32.403275 C113.377937,32.7918761 113.241209,33.1229018 112.967749,33.3963619 C112.694289,33.6698219 112.363264,33.8065499 111.974662,33.8065499 C111.586061,33.8065499 111.255036,33.6698219 110.981576,33.3963619 C110.708115,33.1229018 110.571387,32.7918761 110.571387,32.403275 C110.571387,32.0146738 110.708115,31.6836481 110.981576,31.4101881 C111.255036,31.136728 111.586061,31 111.974662,31 C112.363264,31 112.694289,31.136728 112.967749,31.4101881 C113.241209,31.6836481 113.377937,32.0146738 113.377937,32.403275 Z M112.967749,36.0517899 L112.967749,46.6303242 L110.981576,46.6303242 L110.981576,36.0517899 L112.967749,36.0517899 Z M120.200013,45.1622827 C121.178712,45.1622827 121.977491,44.8096684 122.596374,44.1044292 C123.244043,43.3991901 123.567872,42.4780752 123.567872,41.341057 C123.567872,40.2328241 123.244043,39.3189054 122.596374,38.5992736 C121.963098,37.8796418 121.164319,37.5198313 120.200013,37.5198313 C119.250099,37.5198313 118.451319,37.8796418 117.803651,38.5992736 C117.155982,39.3189054 116.832153,40.2328241 116.832153,41.341057 C116.832153,42.4636826 117.155982,43.3776012 117.803651,44.0828404 C118.451319,44.8024722 119.250099,45.1622827 120.200013,45.1622827 Z M120.135246,51.6389363 C119.545148,51.6389363 118.99104,51.5633761 118.472905,51.4122534 C117.95477,51.2611308 117.483418,51.0488426 117.058836,50.7753825 C116.634253,50.5019224 116.270844,50.178093 115.968599,49.8038845 C115.666353,49.4296759 115.436075,49.0122958 115.277756,48.5517314 L117.155985,47.774533 C117.371875,48.3934163 117.746078,48.8899548 118.278605,49.2641633 C118.811133,49.6383718 119.430007,49.8254733 120.135246,49.8254733 C121.214694,49.8254733 122.05665,49.5016439 122.661141,48.8539752 C123.265632,48.2063066 123.567872,47.3139766 123.567872,46.1769584 L123.567872,45.1622827 L123.481517,45.1622827 C123.107309,45.7235955 122.599976,46.1661624 121.959503,46.4899967 C121.319031,46.813831 120.624597,46.9757457 119.87618,46.9757457 C118.494487,46.9757457 117.307112,46.4360299 116.31402,45.3565823 C115.335321,44.2483493 114.845979,42.9098543 114.845979,41.341057 C114.845979,39.7722597 115.335321,38.4409609 116.31402,37.3471206 C117.307112,36.2532803 118.494487,35.7063683 119.87618,35.7063683 C120.624597,35.7063683 121.319031,35.868283 121.959503,36.1921173 C122.599976,36.5159517 123.107309,36.9585186 123.481517,37.5198313 L123.567872,37.5198313 L123.567872,36.0517899 L125.467691,36.0517899 L125.467691,46.1769584 C125.467691,47.8752894 124.985545,49.2065882 124.021238,50.1708948 C123.042539,51.1495941 121.747221,51.6389363 120.135246,51.6389363 Z M127.17321,41.341057 C127.17321,39.7146892 127.684141,38.3689979 128.706018,37.3039429 C129.742287,36.2388879 131.044801,35.7063683 132.613599,35.7063683 C134.182396,35.7063683 135.477714,36.2388879 136.499591,37.3039429 C137.535861,38.3689979 138.053988,39.7146892 138.053988,41.341057 C138.053988,42.9818175 137.535861,44.3275087 136.499591,45.3781711 C135.477714,46.4432262 134.182396,46.9757457 132.613599,46.9757457 C131.044801,46.9757457 129.742287,46.4432262 128.706018,45.3781711 C127.684141,44.3131161 127.17321,42.9674248 127.17321,41.341057 Z M129.159383,41.341057 C129.159383,42.4780752 129.490409,43.3991901 130.15247,44.1044292 C130.814532,44.8096684 131.634899,45.1622827 132.613599,45.1622827 C133.592298,45.1622827 134.412666,44.8096684 135.074727,44.1044292 C135.736788,43.3991901 136.067814,42.4780752 136.067814,41.341057 C136.067814,40.2184314 135.736788,39.3045128 135.074727,38.5992736 C134.398273,37.8796418 133.577905,37.5198313 132.613599,37.5198313 C131.649292,37.5198313 130.828924,37.8796418 130.15247,38.5992736 C129.490409,39.3045128 129.159383,40.2184314 129.159383,41.341057 Z" id="2017-Vigo" fill="#E6E6E5"></path>
            </g>
        </g>
    </g>
</svg>